# xmcd
#
# Track frame offsets: 
#        150
#        14414
#        28330
#        45915
#        60005
#        76211
#        88414
#        101135
#        112034
#        121009
#        133566
#        145577
#        168613
#        184148
#        205288
#        242987
#        248323
#        259424
#        281521
#
# Disc length: 4011 seconds
#
# Revision: 0
# Processed by: cddbd v1.4PL0 Copyright (c) Steve Scherf et al.
# Submitted via: ExactAudioCopy v0.95a3
#
DISCID=060fa913
DTITLE=Mickey Newbury - Some Memories (Atlanta, GA)
DYEAR=1997
DGENRE=Country
TTITLE0=Intro
TTITLE1=Just Another Lovely Day
TTITLE2=Big Storm Coming
TTITLE3=Why You Been Gone So Long
TTITLE4=Three Bells For Stephen
TTITLE5=Good Morning Dear
TTITLE6=Ain't No Blues Today
TTITLE7=How I Love Them Old Songs
TTITLE8=Leaving Kentucky
TTITLE9=East Kentucky
TTITLE10=That's Alright, Mama
TTITLE11=You're My Lady Now
TTITLE12=Lie To Me Darlin'
TTITLE13=Some Memories
TTITLE14=An American Trilogy
TTITLE15=Amazing Grace
TTITLE16=Cortelia Clark
TTITLE17=All The Neon Lights
TTITLE18=Willow Tree
EXTD=
EXTT0=
EXTT1=
EXTT2=
EXTT3=
EXTT4=
EXTT5=
EXTT6=
EXTT7=
EXTT8=
EXTT9=
EXTT10=
EXTT11=
EXTT12=
EXTT13=
EXTT14=
EXTT15=
EXTT16=
EXTT17=
EXTT18=
PLAYORDER=
